<?xml version="1.0" standalone="no"?>
<!DOCTYPE svg PUBLIC "-//W3C//DTD SVG 20010904//EN"
 "http://www.w3.org/TR/2001/REC-SVG-20010904/DTD/svg10.dtd">
<svg version="1.0" xmlns="http://www.w3.org/2000/svg"
 width="310.000000pt" height="310.000000pt" viewBox="0 0 310.000000 310.000000"
 preserveAspectRatio="xMidYMid meet">
<metadata>
Created by potrace 1.11, written by Peter Selinger 2001-2013
</metadata>
<g transform="translate(0.000000,310.000000) scale(0.100000,-0.100000)"
fill="#000000" stroke="none">
<path d="M2089 2978 c-22 -9 -42 -25 -46 -35 -3 -10 -14 -27 -24 -39 -10 -11
-23 -44 -29 -74 -13 -68 -47 -101 -94 -90 -32 7 -91 43 -122 75 -15 14 -31 17
-95 13 -62 -4 -91 -11 -145 -38 -36 -18 -74 -40 -83 -49 -42 -40 -242 -151
-273 -151 -26 0 -153 -73 -185 -106 -40 -41 -42 -66 -7 -93 21 -17 24 -25 18
-55 -4 -24 -2 -36 5 -36 16 0 13 -36 -4 -50 -21 -17 -56 -68 -59 -83 -1 -7 -9
-23 -19 -37 -9 -13 -17 -28 -17 -32 0 -17 42 -48 65 -48 31 0 33 -23 3 -44
-31 -22 -16 -30 33 -18 24 6 49 7 58 2 27 -14 53 -48 46 -60 -8 -12 -166 -116
-202 -133 -13 -6 -23 -16 -23 -24 0 -7 -4 -13 -10 -13 -5 0 -10 -9 -10 -20 0
-11 -6 -20 -14 -20 -8 0 -18 -14 -21 -32 -6 -26 -3 -35 15 -50 12 -10 30 -18
41 -18 29 0 30 -15 2 -40 -23 -20 -24 -24 -11 -34 13 -10 2 -18 -66 -50 -237
-113 -378 -245 -447 -419 -20 -48 -51 -215 -44 -227 2 -3 6 -24 8 -45 7 -57
34 -155 53 -195 34 -71 131 -199 246 -326 66 -73 133 -150 151 -173 17 -23 37
-41 43 -41 21 0 275 90 327 116 29 15 99 57 157 95 112 74 149 116 205 232 28
58 55 83 80 73 8 -3 36 -38 64 -79 27 -41 105 -134 172 -208 67 -74 138 -155
158 -182 19 -26 40 -47 46 -47 18 0 236 76 298 104 87 38 219 120 275 171 80
72 150 222 156 338 7 130 -32 212 -166 353 -54 56 -98 104 -98 107 0 3 32 23
71 43 61 33 70 40 65 60 -4 15 2 32 19 52 28 34 32 64 10 82 -8 7 -15 18 -15
25 0 13 -95 105 -137 132 -39 26 -153 49 -210 42 -28 -4 -110 -25 -182 -49
-100 -32 -151 -55 -223 -101 -187 -120 -263 -206 -324 -368 -42 -114 -46 -121
-63 -121 -20 0 -184 164 -174 174 3 3 -3 6 -15 6 -24 0 -34 11 -24 27 4 6 35
25 70 42 51 26 62 36 62 56 0 14 5 25 10 25 6 0 10 9 10 19 0 11 5 23 11 27 7
4 9 21 5 47 -5 31 -19 52 -66 99 -32 32 -64 58 -70 58 -5 0 -10 5 -10 10 0 11
5 11 136 -20 l91 -22 89 27 c87 27 128 48 349 175 148 85 202 126 225 169 61
115 64 125 64 201 0 54 -6 88 -21 121 -23 51 -29 58 -121 138 -35 31 -62 63
-62 73 0 11 26 50 58 88 72 86 93 116 114 163 30 66 59 175 57 214 -7 116
-100 170 -210 121z m118 -55 c5 -16 7 -56 6 -91 -2 -93 -43 -173 -145 -281
-46 -48 -109 -117 -140 -153 l-57 -66 42 -5 c78 -9 157 -47 213 -101 64 -62
83 -116 65 -184 -6 -24 -9 -53 -5 -66 6 -26 -27 -57 -131 -118 -177 -105 -253
-149 -285 -163 -19 -8 -42 -20 -50 -25 -8 -5 -51 -20 -96 -33 l-81 -24 -119
32 c-65 18 -174 40 -242 50 -103 15 -132 16 -185 5 -34 -6 -70 -16 -80 -22
-10 -5 -21 -7 -24 -4 -3 3 62 49 143 103 82 53 181 120 220 148 l72 51 -16 27
c-14 23 -21 26 -49 21 -35 -7 -90 20 -164 78 -36 27 -37 28 -79 13 -50 -18
-61 -14 -27 8 87 57 138 149 145 260 2 42 3 77 0 77 -2 0 -25 -7 -51 -16 -25
-9 -54 -14 -64 -12 -11 2 4 11 37 22 30 10 62 24 70 31 20 17 85 37 124 39 23
1 32 7 34 23 3 17 17 26 70 42 53 17 80 33 131 80 55 50 75 62 140 81 129 37
119 36 93 7 l-23 -25 30 -21 c16 -12 49 -28 73 -37 49 -18 226 -46 238 -39 15
9 42 104 42 148 1 23 -2 56 -6 73 -7 29 -4 32 51 62 32 17 61 32 65 32 4 0 11
-12 15 -27z m-975 -1428 c30 -11 69 -39 116 -85 l71 -68 -26 -17 c-14 -10 -62
-30 -107 -45 -44 -16 -112 -40 -151 -54 -38 -14 -72 -26 -74 -26 -11 0 31 39
86 80 l62 47 -82 46 c-45 25 -101 50 -124 55 -40 9 -47 7 -110 -30 -81 -48
-103 -67 -155 -132 l-39 -49 7 -146 c4 -80 8 -147 9 -149 2 -2 39 15 84 38 45
22 147 63 228 90 166 57 169 57 253 -5 58 -43 152 -156 179 -216 41 -90 23
-259 -36 -336 -26 -34 -137 -109 -256 -173 -54 -29 -320 -130 -342 -130 -2 0
-23 28 -48 63 -25 34 -94 115 -154 180 -171 184 -216 275 -217 432 0 145 57
278 166 386 111 111 427 256 559 258 30 1 76 -6 101 -14z m1214 -3 c23 -9 73
-47 113 -84 l72 -67 -40 -21 c-22 -11 -96 -40 -163 -64 -68 -24 -132 -47 -143
-51 -33 -13 18 38 82 82 l54 37 -38 23 c-66 41 -127 71 -171 82 -42 12 -44 11
-120 -36 -79 -48 -89 -57 -149 -130 l-35 -42 7 -151 c4 -82 9 -150 11 -150 1
0 44 20 94 44 50 25 153 65 230 91 l140 47 45 -22 c56 -27 192 -169 225 -236
46 -92 37 -251 -19 -334 -32 -47 -179 -149 -296 -205 -54 -26 -294 -115 -310
-115 -2 0 -23 28 -48 63 -25 34 -94 115 -154 180 -169 182 -215 274 -216 427
-1 113 27 205 93 303 57 86 83 109 195 178 108 67 162 93 280 133 115 40 195
45 261 18z m-1436 -202 c16 -16 18 -25 10 -45 -6 -15 -10 -41 -10 -59 0 -51
-64 -97 -151 -110 -53 -8 -73 7 -71 53 2 61 27 97 99 140 77 46 95 49 123 21z
m1218 -9 c7 -9 10 -25 6 -36 -3 -11 -8 -36 -11 -55 -7 -46 -27 -68 -88 -96
-61 -29 -99 -30 -125 -4 -24 24 -26 60 -6 99 13 25 116 100 156 114 22 8 53
-2 68 -22z"/>
<path d="M1497 2573 c-3 -5 -8 -46 -12 -93 -7 -89 9 -245 27 -267 6 -7 26 -13
45 -13 28 0 46 12 106 66 75 70 187 183 187 190 0 2 -16 4 -35 4 -44 0 -124
16 -202 41 -47 16 -67 28 -80 50 -17 29 -28 35 -36 22z"/>
<path d="M1260 2200 c0 -5 5 -10 10 -10 6 0 10 5 10 10 0 6 -4 10 -10 10 -5 0
-10 -4 -10 -10z"/>
<path d="M1650 2138 c-25 -23 -69 -63 -97 -90 -29 -26 -55 -48 -58 -48 -3 0
-28 -17 -57 -37 l-51 -37 45 -12 c26 -6 70 -25 100 -42 61 -34 127 -56 212
-71 l59 -11 58 51 c33 28 68 64 80 80 l20 29 -29 42 c-58 84 -183 189 -224
188 -7 0 -33 -19 -58 -42z m117 -114 c34 -21 56 -60 48 -84 -15 -47 -106 -65
-160 -32 -46 29 -44 63 7 106 44 38 59 39 105 10z"/>
<path d="M989 1010 c-19 -13 -8 -18 21 -10 19 4 21 7 9 12 -9 3 -22 2 -30 -2z"/>
<path d="M797 901 c-38 -21 -72 -42 -77 -47 -13 -13 22 -155 55 -229 17 -40
22 -62 15 -69 -7 -7 0 -20 22 -43 18 -18 36 -33 41 -33 5 0 39 -20 76 -44 36
-24 89 -55 118 -70 l52 -26 61 36 c67 41 122 97 99 102 -9 2 -26 50 -46 132
-37 145 -58 198 -105 254 -43 53 -98 76 -178 75 -56 0 -74 -6 -133 -38z m231
-105 c54 -28 103 -133 116 -247 5 -40 2 -51 -20 -74 -21 -23 -31 -26 -61 -22
-36 6 -112 50 -156 91 -31 29 -59 82 -83 158 -17 56 -17 58 2 79 10 12 28 25
39 30 29 13 127 4 163 -15z"/>
<path d="M2199 1010 c-19 -13 -8 -18 21 -10 19 4 21 7 9 12 -9 3 -22 2 -30 -2z"/>
<path d="M2005 900 c-38 -22 -74 -41 -79 -43 -13 -4 17 -131 53 -222 25 -64
27 -77 15 -82 -12 -4 -8 -13 17 -39 18 -19 39 -34 47 -34 7 0 39 -17 70 -39
31 -21 85 -52 119 -70 l62 -31 61 36 c70 42 123 97 97 102 -10 2 -18 19 -22
45 -16 94 -69 254 -101 304 -50 79 -100 107 -193 111 -72 2 -79 0 -146 -38z
m199 -91 c22 -6 51 -23 66 -38 31 -30 67 -120 83 -203 9 -48 8 -60 -6 -81 -27
-42 -68 -44 -134 -6 -105 60 -160 136 -183 252 -7 34 -4 40 22 62 33 28 85 33
152 14z"/>
</g>
</svg>
